<?xml version="1.0" encoding="UTF-8"?>
<svg width="752pt" height="752pt" version="1.1" viewBox="0 0 752 752" xmlns="http://www.w3.org/2000/svg">
 <g>
  <path d="m376 441.3c5.2266 0 9.4727-4.2422 9.4727-9.4727v-169.55l64.188 67.172c1.8594 1.9453 4.3516 2.9258 6.8477 2.9258 2.3555 0 4.707-0.87109 6.5391-2.625 3.7773-3.6172 3.918-9.6094 0.30469-13.395l-87.352-91.406-87.355 91.41c-3.6133 3.7852-3.4766 9.7734 0.30469 13.395 3.7891 3.6133 9.7852 3.4766 13.395-0.30469l64.188-67.172v169.55c0 5.2344 4.2422 9.4727 9.4688 9.4727z"/>
  <path d="m224.46 418.62v43.055c0 34.281 25.906 61.133 58.984 61.133h185.13c33.066 0 58.977-26.852 58.977-61.137v-40.902c0-5.2266-4.2422-9.4727-9.4727-9.4727-5.2266 0-9.4727 4.2422-9.4727 9.4727v40.902c0.003907 24.055-17.211 42.191-40.039 42.191h-185.12c-22.828 0-40.043-18.137-40.043-42.191v-43.051c0-5.2266-4.2422-9.4727-9.4727-9.4727-5.2266 0-9.4688 4.2422-9.4688 9.4727z"/>
 </g>
</svg>
